<svg width="128" height="128" viewBox="0 0 128 128" fill="none" xmlns="http://www.w3.org/2000/svg">
  <!-- Background circle -->
  <circle cx="64" cy="64" r="60" fill="#667eea" stroke="#ffffff" stroke-width="4"/>
  
  <!-- Color palette icon -->
  <g fill="#ffffff">
    <!-- Main palette -->
    <rect x="32" y="40" width="64" height="48" rx="8" fill="#ffffff" stroke="#667eea" stroke-width="2"/>
    
    <!-- Color swatches -->
    <circle cx="44" cy="52" r="6" fill="#ff6b6b"/>
    <circle cx="60" cy="52" r="6" fill="#4ecdc4"/>
    <circle cx="76" cy="52" r="6" fill="#45b7d1"/>
    <circle cx="92" cy="52" r="6" fill="#96ceb4"/>
    
    <!-- Bottom row -->
    <circle cx="44" cy="68" r="6" fill="#feca57"/>
    <circle cx="60" cy="68" r="6" fill="#ff9ff3"/>
    <circle cx="76" cy="68" r="6" fill="#54a0ff"/>
    <circle cx="92" cy="68" r="6" fill="#5f27cd"/>
    
    <!-- Eyedropper -->
    <path d="M88 80 L96 88 L88 96 L80 88 L88 80 Z" fill="#667eea"/>
    <path d="M88 80 L88 88 L80 88 L88 80 Z" fill="#ffffff"/>
    
    <!-- Small dots for texture -->
    <circle cx="52" cy="76" r="2" fill="#667eea" opacity="0.3"/>
    <circle cx="68" cy="76" r="2" fill="#667eea" opacity="0.3"/>
    <circle cx="84" cy="76" r="2" fill="#667eea" opacity="0.3"/>
  </g>
  
  <!-- Extension indicator -->
  <circle cx="100" cy="28" r="12" fill="#28a745"/>
  <text x="100" y="32" text-anchor="middle" fill="#ffffff" font-family="Arial, sans-serif" font-size="12" font-weight="bold">F</text>
</svg>