<svg xmlns="http://www.w3.org/2000/svg" id="export" class="canvas" preserveAspectRatio="xMidYMid meet" style="" width="1357" height="125"><rect id="background" fill="#fff" pointer-events="all" width="1357" height="125"/><g id="origin" transform="translate(5.65, 5.65) scale(1)"><g id="clusters" class="clusters"/><g id="edge-paths" class="edge-paths" style="pointer-events: none;"><defs><marker id="arrowhead" viewBox="0 0 10 10" refX="9" refY="5" markerUnits="strokeWidth" markerWidth="8" markerHeight="6" orient="auto" style="fill: rgb(0, 0, 0);"><path d="M 0 0 L 10 5 L 0 10 L 4 5 z" style="stroke-width: 1;"/></marker><marker id="arrowhead-select" viewBox="0 0 10 10" refX="9" refY="5" markerUnits="strokeWidth" markerWidth="8" markerHeight="6" orient="auto" style="fill: rgba(220, 0, 0, 0.9);"><path d="M 0 0 L 10 5 L 0 10 L 4 5 z" style="stroke-width: 1;"/></marker><marker id="arrowhead-hover" viewBox="0 0 10 10" refX="9" refY="5" markerUnits="strokeWidth" markerWidth="8" markerHeight="6" orient="auto" style="fill: rgba(220, 0, 0, 0.9);"><path d="M 0 0 L 10 5 L 0 10 L 4 5 z" style="stroke-width: 1;"/></marker></defs><path id="edge-input" class="edge-path" d="M39.5810546875,56.5L41.247721354166664,56.5C42.914388020833336,56.5,46.247721354166664,56.5,49.5810546875,56.5C52.914388020833336,56.5,56.247721354166664,56.5,59.5810546875,56.5C62.914388020833336,56.5,66.24772135416667,56.5,69.5810546875,56.5C72.91438802083333,56.5,76.24772135416667,56.5,77.91438802083333,56.5L79.5810546875,56.5" style="stroke: rgb(0, 0, 0); stroke-width: 1px; fill: none; marker-end: url(&quot;#arrowhead&quot;);"/><path id="edge-/conv1/Conv_output_0" class="edge-path" d="M168.4521484375,56.5L170.11881510416666,56.5C171.78548177083334,56.5,175.11881510416666,56.5,178.4521484375,56.5C181.78548177083334,56.5,185.11881510416666,56.5,186.78548177083334,56.5L188.4521484375,56.5" style="stroke: rgb(0, 0, 0); stroke-width: 1px; fill: none; marker-end: url(&quot;#arrowhead&quot;);"/><path id="edge-/Relu_output_0" class="edge-path" d="M223.3583984375,56.5L225.02506510416666,56.5C226.69173177083334,56.5,230.02506510416666,56.5,233.3583984375,56.5C236.69173177083334,56.5,240.02506510416666,56.5,241.69173177083334,56.5L243.3583984375,56.5" style="stroke: rgb(0, 0, 0); stroke-width: 1px; fill: none; marker-end: url(&quot;#arrowhead&quot;);"/><path id="edge-/conv2/Conv_output_0" class="edge-path" d="M332.2294921875,56.5L333.8961588541667,56.5C335.5628255208333,56.5,338.8961588541667,56.5,342.2294921875,56.5C345.5628255208333,56.5,348.8961588541667,56.5,350.5628255208333,56.5L352.2294921875,56.5" style="stroke: rgb(0, 0, 0); stroke-width: 1px; fill: none; marker-end: url(&quot;#arrowhead&quot;);"/><path id="edge-/Relu_1_output_0" class="edge-path" d="M387.1357421875,56.5L388.8024088541667,56.5C390.4690755208333,56.5,393.8024088541667,56.5,397.1357421875,56.5C400.4690755208333,56.5,403.8024088541667,56.5,405.4690755208333,56.5L407.1357421875,56.5" style="stroke: rgb(0, 0, 0); stroke-width: 1px; fill: none; marker-end: url(&quot;#arrowhead&quot;);"/><path id="edge-/MaxPool_output_0" class="edge-path" d="M496.0068359375,56.5L497.6735026041667,56.5C499.3401692708333,56.5,502.6735026041667,56.5,506.0068359375,56.5C509.3401692708333,56.5,512.6735026041666,56.5,514.3401692708334,56.5L516.0068359375,56.5" style="stroke: rgb(0, 0, 0); stroke-width: 1px; fill: none; marker-end: url(&quot;#arrowhead&quot;);"/><path id="edge-/conv3/Conv_output_0" class="edge-path" d="M604.8779296875,56.5L606.5445963541666,56.5C608.2112630208334,56.5,611.5445963541666,56.5,614.8779296875,56.5C618.2112630208334,56.5,621.5445963541666,56.5,623.2112630208334,56.5L624.8779296875,56.5" style="stroke: rgb(0, 0, 0); stroke-width: 1px; fill: none; marker-end: url(&quot;#arrowhead&quot;);"/><path id="edge-/Relu_2_output_0" class="edge-path" d="M659.7841796875,56.5L661.4508463541666,56.5C663.1175130208334,56.5,666.4508463541666,56.5,669.7841796875,56.5C673.1175130208334,56.5,676.4508463541666,56.5,678.1175130208334,56.5L679.7841796875,56.5" style="stroke: rgb(0, 0, 0); stroke-width: 1px; fill: none; marker-end: url(&quot;#arrowhead&quot;);"/><path id="edge-/MaxPool_1_output_0" class="edge-path" d="M768.6552734375,56.5L770.3219401041666,56.5C771.9886067708334,56.5,775.3219401041666,56.5,778.6552734375,56.5C781.9886067708334,56.5,785.3219401041666,56.5,786.9886067708334,56.5L788.6552734375,56.5" style="stroke: rgb(0, 0, 0); stroke-width: 1px; fill: none; marker-end: url(&quot;#arrowhead&quot;);"/><path id="edge-/conv4/Conv_output_0" class="edge-path" d="M877.3896484375,56.5L879.0563151041666,56.5C880.7229817708334,56.5,884.0563151041666,56.5,887.3896484375,56.5C890.7229817708334,56.5,894.0563151041666,56.5,895.7229817708334,56.5L897.3896484375,56.5" style="stroke: rgb(0, 0, 0); stroke-width: 1px; fill: none; marker-end: url(&quot;#arrowhead&quot;);"/><path id="edge-/Relu_3_output_0" class="edge-path" d="M932.2958984375,56.5L933.9625651041666,56.5C935.6292317708334,56.5,938.9625651041666,56.5,942.2958984375,56.5C945.6292317708334,56.5,948.9625651041666,56.5,950.6292317708334,56.5L952.2958984375,56.5" style="stroke: rgb(0, 0, 0); stroke-width: 1px; fill: none; marker-end: url(&quot;#arrowhead&quot;);"/><path id="edge-/Reshape_output_0" class="edge-path" d="M1027.2958984375,56.5L1028.9625651041667,56.5C1030.6292317708333,56.5,1033.9625651041667,56.5,1037.2958984375,56.5C1040.6292317708333,56.5,1043.9625651041667,56.5,1045.6292317708333,56.5L1047.2958984375,56.5" style="stroke: rgb(0, 0, 0); stroke-width: 1px; fill: none; marker-end: url(&quot;#arrowhead&quot;);"/><path id="edge-/fc1/Gemm_output_0" class="edge-path" d="M1122.2958984375,56.5L1123.9625651041667,56.5C1125.6292317708333,56.5,1128.9625651041667,56.5,1132.2958984375,56.5C1135.6292317708333,56.5,1138.9625651041667,56.5,1140.6292317708333,56.5L1142.2958984375,56.5" style="stroke: rgb(0, 0, 0); stroke-width: 1px; fill: none; marker-end: url(&quot;#arrowhead&quot;);"/><path id="edge-output" class="edge-path" d="M1214.92724609375,56.5L1221.8798828125,56.5C1228.83251953125,56.5,1242.73779296875,56.5,1256.64306640625,56.5C1270.54833984375,56.5,1284.45361328125,56.5,1291.40625,56.5L1298.35888671875,56.5" style="stroke: rgb(0, 0, 0); stroke-width: 1px; fill: none; marker-end: url(&quot;#arrowhead&quot;);"/></g><g id="edge-labels" class="edge-labels"><text class="edge-label" id="edge-label-edge-output" transform="translate(1224.92724609375,66.5)" style="opacity: 1; font-family: -apple-system, BlinkMacSystemFont, &quot;Segoe WPC&quot;, &quot;Segoe UI&quot;, Ubuntu, &quot;Droid Sans&quot;, sans-serif, &quot;PingFang SC&quot;; font-size: 10px;"><tspan xml:space="preserve" dy="1em" x="1">batch_size×10</tspan></text></g><g id="nodes" class="nodes"><g id="input-name-input" class="node graph-input" transform="translate(0,45)" style=""><g class="node-item graph-item-input" transform="translate(0,0)"><path d="M5,0h29.5810546875a5,5 0 0 1 5,5v13a5,5 0 0 1 -5,5h-29.5810546875a5,5 0 0 1 -5,-5v-13a5,5 0 0 1 5,-5z" style="stroke: rgb(0, 0, 0); fill: rgb(238, 238, 238); stroke-width: 0;"/><text x="6" y="16" style="font-family: -apple-system, BlinkMacSystemFont, &quot;Segoe WPC&quot;, &quot;Segoe UI&quot;, Ubuntu, &quot;Droid Sans&quot;, sans-serif, &quot;PingFang SC&quot;; font-size: 11px; text-rendering: geometricprecision; user-select: none;">input</text><title>float32[batch_size,1,28,28]</title></g><path class="node node-border" d="M5,0h29.5810546875a5,5 0 0 1 5,5v13a5,5 0 0 1 -5,5h-29.5810546875a5,5 0 0 1 -5,-5v-13a5,5 0 0 1 5,-5z" style="stroke: rgb(51, 51, 51); fill: none; stroke-width: 1px;"/></g><g id="node-name-/conv1/Conv" class="node graph-node" transform="translate(79.5810546875,0)" style=""><g class="node-item node-item-type node-item-type-layer" transform="translate(0,0)"><path d="M5,0h78.87109375a5,5 0 0 1 5,5v18a0,0 0 0 1 0,0h-88.87109375a0,0 0 0 1 0,0v-18a5,5 0 0 1 5,-5z" style="stroke: rgb(0, 0, 0); fill: rgb(51, 85, 136); stroke-width: 0;"/><text x="6" y="16" style="font-family: -apple-system, BlinkMacSystemFont, &quot;Segoe WPC&quot;, &quot;Segoe UI&quot;, Ubuntu, &quot;Droid Sans&quot;, sans-serif, &quot;PingFang SC&quot;; font-size: 11px; text-rendering: geometricprecision; user-select: none; fill: rgb(255, 255, 255);">Conv</text><title>/conv1/Conv</title></g><g class="node-argument-list" transform="translate(0,23)"><path d="M0,0h88.87109375a0,0 0 0 1 0,0v85a5,5 0 0 1 -5,5h-78.87109375a5,5 0 0 1 -5,-5v-85a0,0 0 0 1 0,0z" style="stroke: rgb(0, 0, 0); fill: rgb(255, 255, 255); stroke-width: 0;"/><g class="node-argument"><rect rx="3" ry="3" x="3" y="3" width="82.87109375" height="14" style="fill: transparent;"/><text xml:space="preserve" x="6" y="14" style="font-family: -apple-system, BlinkMacSystemFont, &quot;Segoe WPC&quot;, &quot;Segoe UI&quot;, Ubuntu, &quot;Droid Sans&quot;, sans-serif, &quot;PingFang SC&quot;; font-size: 9px; font-weight: normal; text-rendering: geometricprecision; user-select: none;"><title>float32[16,1,3,3]</title><tspan style="font-weight: bold;">W</tspan><tspan>〈16×1×3×3〉</tspan></text></g><g class="node-argument"><rect rx="3" ry="3" x="3" y="17" width="82.87109375" height="14" style="fill: transparent;"/><text xml:space="preserve" x="6" y="28" style="font-family: -apple-system, BlinkMacSystemFont, &quot;Segoe WPC&quot;, &quot;Segoe UI&quot;, Ubuntu, &quot;Droid Sans&quot;, sans-serif, &quot;PingFang SC&quot;; font-size: 9px; font-weight: normal; text-rendering: geometricprecision; user-select: none;"><title>float32[16]</title><tspan style="font-weight: bold;">B</tspan><tspan>〈16〉</tspan></text></g><g class="node-argument"><rect rx="3" ry="3" x="3" y="31" width="82.87109375" height="14" style="fill: transparent;"/><text xml:space="preserve" x="6" y="42" style="font-family: -apple-system, BlinkMacSystemFont, &quot;Segoe WPC&quot;, &quot;Segoe UI&quot;, Ubuntu, &quot;Droid Sans&quot;, sans-serif, &quot;PingFang SC&quot;; font-size: 9px; font-weight: normal; text-rendering: geometricprecision; user-select: none;"><title>int64[]</title><tspan>dilations</tspan><tspan> = 1, 1</tspan></text></g><g class="node-argument"><rect rx="3" ry="3" x="3" y="45" width="82.87109375" height="14" style="fill: transparent;"/><text xml:space="preserve" x="6" y="56" style="font-family: -apple-system, BlinkMacSystemFont, &quot;Segoe WPC&quot;, &quot;Segoe UI&quot;, Ubuntu, &quot;Droid Sans&quot;, sans-serif, &quot;PingFang SC&quot;; font-size: 9px; font-weight: normal; text-rendering: geometricprecision; user-select: none;"><title>int64[]</title><tspan>kernel_shape</tspan><tspan> = 3, 3</tspan></text></g><g class="node-argument"><rect rx="3" ry="3" x="3" y="59" width="82.87109375" height="14" style="fill: transparent;"/><text xml:space="preserve" x="6" y="70" style="font-family: -apple-system, BlinkMacSystemFont, &quot;Segoe WPC&quot;, &quot;Segoe UI&quot;, Ubuntu, &quot;Droid Sans&quot;, sans-serif, &quot;PingFang SC&quot;; font-size: 9px; font-weight: normal; text-rendering: geometricprecision; user-select: none;"><title>int64[]</title><tspan>pads</tspan><tspan> = 0, 0, 0, 0</tspan></text></g><g class="node-argument"><rect rx="3" ry="3" x="3" y="73" width="82.87109375" height="14" style="fill: transparent;"/><text xml:space="preserve" x="6" y="84" style="font-family: -apple-system, BlinkMacSystemFont, &quot;Segoe WPC&quot;, &quot;Segoe UI&quot;, Ubuntu, &quot;Droid Sans&quot;, sans-serif, &quot;PingFang SC&quot;; font-size: 9px; font-weight: normal; text-rendering: geometricprecision; user-select: none;"><title>int64[]</title><tspan>strides</tspan><tspan> = 1, 1</tspan></text></g><line class="node" x1="0" x2="88.87109375" y1="0" y2="0" style="stroke: rgb(51, 51, 51); fill: none; stroke-width: 1px;"/></g><path class="node node-border" d="M5,0h78.87109375a5,5 0 0 1 5,5v103a5,5 0 0 1 -5,5h-78.87109375a5,5 0 0 1 -5,-5v-103a5,5 0 0 1 5,-5z" style="stroke: rgb(51, 51, 51); fill: none; stroke-width: 1px;"/></g><g id="node-name-/Relu" class="node graph-node" transform="translate(188.4521484375,45)" style=""><g class="node-item node-item-type node-item-type-activation" transform="translate(0,0)"><path d="M5,0h24.90625a5,5 0 0 1 5,5v13a5,5 0 0 1 -5,5h-24.90625a5,5 0 0 1 -5,-5v-13a5,5 0 0 1 5,-5z" style="stroke: rgb(0, 0, 0); fill: rgb(112, 41, 33); stroke-width: 0;"/><text x="6" y="16" style="font-family: -apple-system, BlinkMacSystemFont, &quot;Segoe WPC&quot;, &quot;Segoe UI&quot;, Ubuntu, &quot;Droid Sans&quot;, sans-serif, &quot;PingFang SC&quot;; font-size: 11px; text-rendering: geometricprecision; user-select: none; fill: rgb(255, 255, 255);">Relu</text><title>/Relu</title></g><path class="node node-border" d="M5,0h24.90625a5,5 0 0 1 5,5v13a5,5 0 0 1 -5,5h-24.90625a5,5 0 0 1 -5,-5v-13a5,5 0 0 1 5,-5z" style="stroke: rgb(51, 51, 51); fill: none; stroke-width: 1px;"/></g><g id="node-name-/conv2/Conv" class="node graph-node" transform="translate(243.3583984375,0)" style=""><g class="node-item node-item-type node-item-type-layer" transform="translate(0,0)"><path d="M5,0h78.87109375a5,5 0 0 1 5,5v18a0,0 0 0 1 0,0h-88.87109375a0,0 0 0 1 0,0v-18a5,5 0 0 1 5,-5z" style="stroke: rgb(0, 0, 0); fill: rgb(51, 85, 136); stroke-width: 0;"/><text x="6" y="16" style="font-family: -apple-system, BlinkMacSystemFont, &quot;Segoe WPC&quot;, &quot;Segoe UI&quot;, Ubuntu, &quot;Droid Sans&quot;, sans-serif, &quot;PingFang SC&quot;; font-size: 11px; text-rendering: geometricprecision; user-select: none; fill: rgb(255, 255, 255);">Conv</text><title>/conv2/Conv</title></g><g class="node-argument-list" transform="translate(0,23)"><path d="M0,0h88.87109375a0,0 0 0 1 0,0v85a5,5 0 0 1 -5,5h-78.87109375a5,5 0 0 1 -5,-5v-85a0,0 0 0 1 0,0z" style="stroke: rgb(0, 0, 0); fill: rgb(255, 255, 255); stroke-width: 0;"/><g class="node-argument"><rect rx="3" ry="3" x="3" y="3" width="82.87109375" height="14" style="fill: transparent;"/><text xml:space="preserve" x="6" y="14" style="font-family: -apple-system, BlinkMacSystemFont, &quot;Segoe WPC&quot;, &quot;Segoe UI&quot;, Ubuntu, &quot;Droid Sans&quot;, sans-serif, &quot;PingFang SC&quot;; font-size: 9px; font-weight: normal; text-rendering: geometricprecision; user-select: none;"><title>float32[32,16,3,3]</title><tspan style="font-weight: bold;">W</tspan><tspan>〈32×16×3×3〉</tspan></text></g><g class="node-argument"><rect rx="3" ry="3" x="3" y="17" width="82.87109375" height="14" style="fill: transparent;"/><text xml:space="preserve" x="6" y="28" style="font-family: -apple-system, BlinkMacSystemFont, &quot;Segoe WPC&quot;, &quot;Segoe UI&quot;, Ubuntu, &quot;Droid Sans&quot;, sans-serif, &quot;PingFang SC&quot;; font-size: 9px; font-weight: normal; text-rendering: geometricprecision; user-select: none;"><title>float32[32]</title><tspan style="font-weight: bold;">B</tspan><tspan>〈32〉</tspan></text></g><g class="node-argument"><rect rx="3" ry="3" x="3" y="31" width="82.87109375" height="14" style="fill: transparent;"/><text xml:space="preserve" x="6" y="42" style="font-family: -apple-system, BlinkMacSystemFont, &quot;Segoe WPC&quot;, &quot;Segoe UI&quot;, Ubuntu, &quot;Droid Sans&quot;, sans-serif, &quot;PingFang SC&quot;; font-size: 9px; font-weight: normal; text-rendering: geometricprecision; user-select: none;"><title>int64[]</title><tspan>dilations</tspan><tspan> = 1, 1</tspan></text></g><g class="node-argument"><rect rx="3" ry="3" x="3" y="45" width="82.87109375" height="14" style="fill: transparent;"/><text xml:space="preserve" x="6" y="56" style="font-family: -apple-system, BlinkMacSystemFont, &quot;Segoe WPC&quot;, &quot;Segoe UI&quot;, Ubuntu, &quot;Droid Sans&quot;, sans-serif, &quot;PingFang SC&quot;; font-size: 9px; font-weight: normal; text-rendering: geometricprecision; user-select: none;"><title>int64[]</title><tspan>kernel_shape</tspan><tspan> = 3, 3</tspan></text></g><g class="node-argument"><rect rx="3" ry="3" x="3" y="59" width="82.87109375" height="14" style="fill: transparent;"/><text xml:space="preserve" x="6" y="70" style="font-family: -apple-system, BlinkMacSystemFont, &quot;Segoe WPC&quot;, &quot;Segoe UI&quot;, Ubuntu, &quot;Droid Sans&quot;, sans-serif, &quot;PingFang SC&quot;; font-size: 9px; font-weight: normal; text-rendering: geometricprecision; user-select: none;"><title>int64[]</title><tspan>pads</tspan><tspan> = 0, 0, 0, 0</tspan></text></g><g class="node-argument"><rect rx="3" ry="3" x="3" y="73" width="82.87109375" height="14" style="fill: transparent;"/><text xml:space="preserve" x="6" y="84" style="font-family: -apple-system, BlinkMacSystemFont, &quot;Segoe WPC&quot;, &quot;Segoe UI&quot;, Ubuntu, &quot;Droid Sans&quot;, sans-serif, &quot;PingFang SC&quot;; font-size: 9px; font-weight: normal; text-rendering: geometricprecision; user-select: none;"><title>int64[]</title><tspan>strides</tspan><tspan> = 1, 1</tspan></text></g><line class="node" x1="0" x2="88.87109375" y1="0" y2="0" style="stroke: rgb(51, 51, 51); fill: none; stroke-width: 1px;"/></g><path class="node node-border" d="M5,0h78.87109375a5,5 0 0 1 5,5v103a5,5 0 0 1 -5,5h-78.87109375a5,5 0 0 1 -5,-5v-103a5,5 0 0 1 5,-5z" style="stroke: rgb(51, 51, 51); fill: none; stroke-width: 1px;"/></g><g id="node-name-/Relu_1" class="node graph-node" transform="translate(352.2294921875,45)" style=""><g class="node-item node-item-type node-item-type-activation" transform="translate(0,0)"><path d="M5,0h24.90625a5,5 0 0 1 5,5v13a5,5 0 0 1 -5,5h-24.90625a5,5 0 0 1 -5,-5v-13a5,5 0 0 1 5,-5z" style="stroke: rgb(0, 0, 0); fill: rgb(112, 41, 33); stroke-width: 0;"/><text x="6" y="16" style="font-family: -apple-system, BlinkMacSystemFont, &quot;Segoe WPC&quot;, &quot;Segoe UI&quot;, Ubuntu, &quot;Droid Sans&quot;, sans-serif, &quot;PingFang SC&quot;; font-size: 11px; text-rendering: geometricprecision; user-select: none; fill: rgb(255, 255, 255);">Relu</text><title>/Relu_1</title></g><path class="node node-border" d="M5,0h24.90625a5,5 0 0 1 5,5v13a5,5 0 0 1 -5,5h-24.90625a5,5 0 0 1 -5,-5v-13a5,5 0 0 1 5,-5z" style="stroke: rgb(51, 51, 51); fill: none; stroke-width: 1px;"/></g><g id="node-name-/MaxPool" class="node graph-node" transform="translate(407.1357421875,7)" style=""><g class="node-item node-item-type node-item-type-pool" transform="translate(0,0)"><path d="M5,0h78.87109375a5,5 0 0 1 5,5v18a0,0 0 0 1 0,0h-88.87109375a0,0 0 0 1 0,0v-18a5,5 0 0 1 5,-5z" style="stroke: rgb(0, 0, 0); fill: rgb(51, 85, 51); stroke-width: 0;"/><text x="6" y="16" style="font-family: -apple-system, BlinkMacSystemFont, &quot;Segoe WPC&quot;, &quot;Segoe UI&quot;, Ubuntu, &quot;Droid Sans&quot;, sans-serif, &quot;PingFang SC&quot;; font-size: 11px; text-rendering: geometricprecision; user-select: none; fill: rgb(255, 255, 255);">MaxPool</text><title>/MaxPool</title></g><g class="node-argument-list" transform="translate(0,23)"><path d="M0,0h88.87109375a0,0 0 0 1 0,0v71a5,5 0 0 1 -5,5h-78.87109375a5,5 0 0 1 -5,-5v-71a0,0 0 0 1 0,0z" style="stroke: rgb(0, 0, 0); fill: rgb(255, 255, 255); stroke-width: 0;"/><g class="node-argument"><rect rx="3" ry="3" x="3" y="3" width="82.87109375" height="14" style="fill: transparent;"/><text xml:space="preserve" x="6" y="14" style="font-family: -apple-system, BlinkMacSystemFont, &quot;Segoe WPC&quot;, &quot;Segoe UI&quot;, Ubuntu, &quot;Droid Sans&quot;, sans-serif, &quot;PingFang SC&quot;; font-size: 9px; font-weight: normal; text-rendering: geometricprecision; user-select: none;"><title>int64</title><tspan>ceil_mode</tspan><tspan> = 0</tspan></text></g><g class="node-argument"><rect rx="3" ry="3" x="3" y="17" width="82.87109375" height="14" style="fill: transparent;"/><text xml:space="preserve" x="6" y="28" style="font-family: -apple-system, BlinkMacSystemFont, &quot;Segoe WPC&quot;, &quot;Segoe UI&quot;, Ubuntu, &quot;Droid Sans&quot;, sans-serif, &quot;PingFang SC&quot;; font-size: 9px; font-weight: normal; text-rendering: geometricprecision; user-select: none;"><title>int64[]</title><tspan>dilations</tspan><tspan> = 1, 1</tspan></text></g><g class="node-argument"><rect rx="3" ry="3" x="3" y="31" width="82.87109375" height="14" style="fill: transparent;"/><text xml:space="preserve" x="6" y="42" style="font-family: -apple-system, BlinkMacSystemFont, &quot;Segoe WPC&quot;, &quot;Segoe UI&quot;, Ubuntu, &quot;Droid Sans&quot;, sans-serif, &quot;PingFang SC&quot;; font-size: 9px; font-weight: normal; text-rendering: geometricprecision; user-select: none;"><title>int64[]</title><tspan>kernel_shape</tspan><tspan> = 2, 2</tspan></text></g><g class="node-argument"><rect rx="3" ry="3" x="3" y="45" width="82.87109375" height="14" style="fill: transparent;"/><text xml:space="preserve" x="6" y="56" style="font-family: -apple-system, BlinkMacSystemFont, &quot;Segoe WPC&quot;, &quot;Segoe UI&quot;, Ubuntu, &quot;Droid Sans&quot;, sans-serif, &quot;PingFang SC&quot;; font-size: 9px; font-weight: normal; text-rendering: geometricprecision; user-select: none;"><title>int64[]</title><tspan>pads</tspan><tspan> = 0, 0, 0, 0</tspan></text></g><g class="node-argument"><rect rx="3" ry="3" x="3" y="59" width="82.87109375" height="14" style="fill: transparent;"/><text xml:space="preserve" x="6" y="70" style="font-family: -apple-system, BlinkMacSystemFont, &quot;Segoe WPC&quot;, &quot;Segoe UI&quot;, Ubuntu, &quot;Droid Sans&quot;, sans-serif, &quot;PingFang SC&quot;; font-size: 9px; font-weight: normal; text-rendering: geometricprecision; user-select: none;"><title>int64[]</title><tspan>strides</tspan><tspan> = 2, 2</tspan></text></g><line class="node" x1="0" x2="88.87109375" y1="0" y2="0" style="stroke: rgb(51, 51, 51); fill: none; stroke-width: 1px;"/></g><path class="node node-border" d="M5,0h78.87109375a5,5 0 0 1 5,5v89a5,5 0 0 1 -5,5h-78.87109375a5,5 0 0 1 -5,-5v-89a5,5 0 0 1 5,-5z" style="stroke: rgb(51, 51, 51); fill: none; stroke-width: 1px;"/></g><g id="node-name-/conv3/Conv" class="node graph-node" transform="translate(516.0068359375,0)" style=""><g class="node-item node-item-type node-item-type-layer" transform="translate(0,0)"><path d="M5,0h78.87109375a5,5 0 0 1 5,5v18a0,0 0 0 1 0,0h-88.87109375a0,0 0 0 1 0,0v-18a5,5 0 0 1 5,-5z" style="stroke: rgb(0, 0, 0); fill: rgb(51, 85, 136); stroke-width: 0;"/><text x="6" y="16" style="font-family: -apple-system, BlinkMacSystemFont, &quot;Segoe WPC&quot;, &quot;Segoe UI&quot;, Ubuntu, &quot;Droid Sans&quot;, sans-serif, &quot;PingFang SC&quot;; font-size: 11px; text-rendering: geometricprecision; user-select: none; fill: rgb(255, 255, 255);">Conv</text><title>/conv3/Conv</title></g><g class="node-argument-list" transform="translate(0,23)"><path d="M0,0h88.87109375a0,0 0 0 1 0,0v85a5,5 0 0 1 -5,5h-78.87109375a5,5 0 0 1 -5,-5v-85a0,0 0 0 1 0,0z" style="stroke: rgb(0, 0, 0); fill: rgb(255, 255, 255); stroke-width: 0;"/><g class="node-argument"><rect rx="3" ry="3" x="3" y="3" width="82.87109375" height="14" style="fill: transparent;"/><text xml:space="preserve" x="6" y="14" style="font-family: -apple-system, BlinkMacSystemFont, &quot;Segoe WPC&quot;, &quot;Segoe UI&quot;, Ubuntu, &quot;Droid Sans&quot;, sans-serif, &quot;PingFang SC&quot;; font-size: 9px; font-weight: normal; text-rendering: geometricprecision; user-select: none;"><title>float32[40,32,3,3]</title><tspan style="font-weight: bold;">W</tspan><tspan>〈40×32×3×3〉</tspan></text></g><g class="node-argument"><rect rx="3" ry="3" x="3" y="17" width="82.87109375" height="14" style="fill: transparent;"/><text xml:space="preserve" x="6" y="28" style="font-family: -apple-system, BlinkMacSystemFont, &quot;Segoe WPC&quot;, &quot;Segoe UI&quot;, Ubuntu, &quot;Droid Sans&quot;, sans-serif, &quot;PingFang SC&quot;; font-size: 9px; font-weight: normal; text-rendering: geometricprecision; user-select: none;"><title>float32[40]</title><tspan style="font-weight: bold;">B</tspan><tspan>〈40〉</tspan></text></g><g class="node-argument"><rect rx="3" ry="3" x="3" y="31" width="82.87109375" height="14" style="fill: transparent;"/><text xml:space="preserve" x="6" y="42" style="font-family: -apple-system, BlinkMacSystemFont, &quot;Segoe WPC&quot;, &quot;Segoe UI&quot;, Ubuntu, &quot;Droid Sans&quot;, sans-serif, &quot;PingFang SC&quot;; font-size: 9px; font-weight: normal; text-rendering: geometricprecision; user-select: none;"><title>int64[]</title><tspan>dilations</tspan><tspan> = 1, 1</tspan></text></g><g class="node-argument"><rect rx="3" ry="3" x="3" y="45" width="82.87109375" height="14" style="fill: transparent;"/><text xml:space="preserve" x="6" y="56" style="font-family: -apple-system, BlinkMacSystemFont, &quot;Segoe WPC&quot;, &quot;Segoe UI&quot;, Ubuntu, &quot;Droid Sans&quot;, sans-serif, &quot;PingFang SC&quot;; font-size: 9px; font-weight: normal; text-rendering: geometricprecision; user-select: none;"><title>int64[]</title><tspan>kernel_shape</tspan><tspan> = 3, 3</tspan></text></g><g class="node-argument"><rect rx="3" ry="3" x="3" y="59" width="82.87109375" height="14" style="fill: transparent;"/><text xml:space="preserve" x="6" y="70" style="font-family: -apple-system, BlinkMacSystemFont, &quot;Segoe WPC&quot;, &quot;Segoe UI&quot;, Ubuntu, &quot;Droid Sans&quot;, sans-serif, &quot;PingFang SC&quot;; font-size: 9px; font-weight: normal; text-rendering: geometricprecision; user-select: none;"><title>int64[]</title><tspan>pads</tspan><tspan> = 0, 0, 0, 0</tspan></text></g><g class="node-argument"><rect rx="3" ry="3" x="3" y="73" width="82.87109375" height="14" style="fill: transparent;"/><text xml:space="preserve" x="6" y="84" style="font-family: -apple-system, BlinkMacSystemFont, &quot;Segoe WPC&quot;, &quot;Segoe UI&quot;, Ubuntu, &quot;Droid Sans&quot;, sans-serif, &quot;PingFang SC&quot;; font-size: 9px; font-weight: normal; text-rendering: geometricprecision; user-select: none;"><title>int64[]</title><tspan>strides</tspan><tspan> = 1, 1</tspan></text></g><line class="node" x1="0" x2="88.87109375" y1="0" y2="0" style="stroke: rgb(51, 51, 51); fill: none; stroke-width: 1px;"/></g><path class="node node-border" d="M5,0h78.87109375a5,5 0 0 1 5,5v103a5,5 0 0 1 -5,5h-78.87109375a5,5 0 0 1 -5,-5v-103a5,5 0 0 1 5,-5z" style="stroke: rgb(51, 51, 51); fill: none; stroke-width: 1px;"/></g><g id="node-name-/Relu_2" class="node graph-node" transform="translate(624.8779296875,45)" style=""><g class="node-item node-item-type node-item-type-activation" transform="translate(0,0)"><path d="M5,0h24.90625a5,5 0 0 1 5,5v13a5,5 0 0 1 -5,5h-24.90625a5,5 0 0 1 -5,-5v-13a5,5 0 0 1 5,-5z" style="stroke: rgb(0, 0, 0); fill: rgb(112, 41, 33); stroke-width: 0;"/><text x="6" y="16" style="font-family: -apple-system, BlinkMacSystemFont, &quot;Segoe WPC&quot;, &quot;Segoe UI&quot;, Ubuntu, &quot;Droid Sans&quot;, sans-serif, &quot;PingFang SC&quot;; font-size: 11px; text-rendering: geometricprecision; user-select: none; fill: rgb(255, 255, 255);">Relu</text><title>/Relu_2</title></g><path class="node node-border" d="M5,0h24.90625a5,5 0 0 1 5,5v13a5,5 0 0 1 -5,5h-24.90625a5,5 0 0 1 -5,-5v-13a5,5 0 0 1 5,-5z" style="stroke: rgb(51, 51, 51); fill: none; stroke-width: 1px;"/></g><g id="node-name-/MaxPool_1" class="node graph-node" transform="translate(679.7841796875,7)" style=""><g class="node-item node-item-type node-item-type-pool" transform="translate(0,0)"><path d="M5,0h78.87109375a5,5 0 0 1 5,5v18a0,0 0 0 1 0,0h-88.87109375a0,0 0 0 1 0,0v-18a5,5 0 0 1 5,-5z" style="stroke: rgb(0, 0, 0); fill: rgb(51, 85, 51); stroke-width: 0;"/><text x="6" y="16" style="font-family: -apple-system, BlinkMacSystemFont, &quot;Segoe WPC&quot;, &quot;Segoe UI&quot;, Ubuntu, &quot;Droid Sans&quot;, sans-serif, &quot;PingFang SC&quot;; font-size: 11px; text-rendering: geometricprecision; user-select: none; fill: rgb(255, 255, 255);">MaxPool</text><title>/MaxPool_1</title></g><g class="node-argument-list" transform="translate(0,23)"><path d="M0,0h88.87109375a0,0 0 0 1 0,0v71a5,5 0 0 1 -5,5h-78.87109375a5,5 0 0 1 -5,-5v-71a0,0 0 0 1 0,0z" style="stroke: rgb(0, 0, 0); fill: rgb(255, 255, 255); stroke-width: 0;"/><g class="node-argument"><rect rx="3" ry="3" x="3" y="3" width="82.87109375" height="14" style="fill: transparent;"/><text xml:space="preserve" x="6" y="14" style="font-family: -apple-system, BlinkMacSystemFont, &quot;Segoe WPC&quot;, &quot;Segoe UI&quot;, Ubuntu, &quot;Droid Sans&quot;, sans-serif, &quot;PingFang SC&quot;; font-size: 9px; font-weight: normal; text-rendering: geometricprecision; user-select: none;"><title>int64</title><tspan>ceil_mode</tspan><tspan> = 0</tspan></text></g><g class="node-argument"><rect rx="3" ry="3" x="3" y="17" width="82.87109375" height="14" style="fill: transparent;"/><text xml:space="preserve" x="6" y="28" style="font-family: -apple-system, BlinkMacSystemFont, &quot;Segoe WPC&quot;, &quot;Segoe UI&quot;, Ubuntu, &quot;Droid Sans&quot;, sans-serif, &quot;PingFang SC&quot;; font-size: 9px; font-weight: normal; text-rendering: geometricprecision; user-select: none;"><title>int64[]</title><tspan>dilations</tspan><tspan> = 1, 1</tspan></text></g><g class="node-argument"><rect rx="3" ry="3" x="3" y="31" width="82.87109375" height="14" style="fill: transparent;"/><text xml:space="preserve" x="6" y="42" style="font-family: -apple-system, BlinkMacSystemFont, &quot;Segoe WPC&quot;, &quot;Segoe UI&quot;, Ubuntu, &quot;Droid Sans&quot;, sans-serif, &quot;PingFang SC&quot;; font-size: 9px; font-weight: normal; text-rendering: geometricprecision; user-select: none;"><title>int64[]</title><tspan>kernel_shape</tspan><tspan> = 2, 2</tspan></text></g><g class="node-argument"><rect rx="3" ry="3" x="3" y="45" width="82.87109375" height="14" style="fill: transparent;"/><text xml:space="preserve" x="6" y="56" style="font-family: -apple-system, BlinkMacSystemFont, &quot;Segoe WPC&quot;, &quot;Segoe UI&quot;, Ubuntu, &quot;Droid Sans&quot;, sans-serif, &quot;PingFang SC&quot;; font-size: 9px; font-weight: normal; text-rendering: geometricprecision; user-select: none;"><title>int64[]</title><tspan>pads</tspan><tspan> = 0, 0, 0, 0</tspan></text></g><g class="node-argument"><rect rx="3" ry="3" x="3" y="59" width="82.87109375" height="14" style="fill: transparent;"/><text xml:space="preserve" x="6" y="70" style="font-family: -apple-system, BlinkMacSystemFont, &quot;Segoe WPC&quot;, &quot;Segoe UI&quot;, Ubuntu, &quot;Droid Sans&quot;, sans-serif, &quot;PingFang SC&quot;; font-size: 9px; font-weight: normal; text-rendering: geometricprecision; user-select: none;"><title>int64[]</title><tspan>strides</tspan><tspan> = 2, 2</tspan></text></g><line class="node" x1="0" x2="88.87109375" y1="0" y2="0" style="stroke: rgb(51, 51, 51); fill: none; stroke-width: 1px;"/></g><path class="node node-border" d="M5,0h78.87109375a5,5 0 0 1 5,5v89a5,5 0 0 1 -5,5h-78.87109375a5,5 0 0 1 -5,-5v-89a5,5 0 0 1 5,-5z" style="stroke: rgb(51, 51, 51); fill: none; stroke-width: 1px;"/></g><g id="node-name-/conv4/Conv" class="node graph-node" transform="translate(788.6552734375,0)" style=""><g class="node-item node-item-type node-item-type-layer" transform="translate(0,0)"><path d="M5,0h78.734375a5,5 0 0 1 5,5v18a0,0 0 0 1 0,0h-88.734375a0,0 0 0 1 0,0v-18a5,5 0 0 1 5,-5z" style="stroke: rgb(0, 0, 0); fill: rgb(51, 85, 136); stroke-width: 0;"/><text x="6" y="16" style="font-family: -apple-system, BlinkMacSystemFont, &quot;Segoe WPC&quot;, &quot;Segoe UI&quot;, Ubuntu, &quot;Droid Sans&quot;, sans-serif, &quot;PingFang SC&quot;; font-size: 11px; text-rendering: geometricprecision; user-select: none; fill: rgb(255, 255, 255);">Conv</text><title>/conv4/Conv</title></g><g class="node-argument-list" transform="translate(0,23)"><path d="M0,0h88.734375a0,0 0 0 1 0,0v85a5,5 0 0 1 -5,5h-78.734375a5,5 0 0 1 -5,-5v-85a0,0 0 0 1 0,0z" style="stroke: rgb(0, 0, 0); fill: rgb(255, 255, 255); stroke-width: 0;"/><g class="node-argument"><rect rx="3" ry="3" x="3" y="3" width="82.734375" height="14" style="fill: transparent;"/><text xml:space="preserve" x="6" y="14" style="font-family: -apple-system, BlinkMacSystemFont, &quot;Segoe WPC&quot;, &quot;Segoe UI&quot;, Ubuntu, &quot;Droid Sans&quot;, sans-serif, &quot;PingFang SC&quot;; font-size: 9px; font-weight: normal; text-rendering: geometricprecision; user-select: none;"><title>float32[24,40,1,1]</title><tspan style="font-weight: bold;">W</tspan><tspan>〈24×40×1×1〉</tspan></text></g><g class="node-argument"><rect rx="3" ry="3" x="3" y="17" width="82.734375" height="14" style="fill: transparent;"/><text xml:space="preserve" x="6" y="28" style="font-family: -apple-system, BlinkMacSystemFont, &quot;Segoe WPC&quot;, &quot;Segoe UI&quot;, Ubuntu, &quot;Droid Sans&quot;, sans-serif, &quot;PingFang SC&quot;; font-size: 9px; font-weight: normal; text-rendering: geometricprecision; user-select: none;"><title>float32[24]</title><tspan style="font-weight: bold;">B</tspan><tspan>〈24〉</tspan></text></g><g class="node-argument"><rect rx="3" ry="3" x="3" y="31" width="82.734375" height="14" style="fill: transparent;"/><text xml:space="preserve" x="6" y="42" style="font-family: -apple-system, BlinkMacSystemFont, &quot;Segoe WPC&quot;, &quot;Segoe UI&quot;, Ubuntu, &quot;Droid Sans&quot;, sans-serif, &quot;PingFang SC&quot;; font-size: 9px; font-weight: normal; text-rendering: geometricprecision; user-select: none;"><title>int64[]</title><tspan>dilations</tspan><tspan> = 1, 1</tspan></text></g><g class="node-argument"><rect rx="3" ry="3" x="3" y="45" width="82.734375" height="14" style="fill: transparent;"/><text xml:space="preserve" x="6" y="56" style="font-family: -apple-system, BlinkMacSystemFont, &quot;Segoe WPC&quot;, &quot;Segoe UI&quot;, Ubuntu, &quot;Droid Sans&quot;, sans-serif, &quot;PingFang SC&quot;; font-size: 9px; font-weight: normal; text-rendering: geometricprecision; user-select: none;"><title>int64[]</title><tspan>kernel_shape</tspan><tspan> = 1, 1</tspan></text></g><g class="node-argument"><rect rx="3" ry="3" x="3" y="59" width="82.734375" height="14" style="fill: transparent;"/><text xml:space="preserve" x="6" y="70" style="font-family: -apple-system, BlinkMacSystemFont, &quot;Segoe WPC&quot;, &quot;Segoe UI&quot;, Ubuntu, &quot;Droid Sans&quot;, sans-serif, &quot;PingFang SC&quot;; font-size: 9px; font-weight: normal; text-rendering: geometricprecision; user-select: none;"><title>int64[]</title><tspan>pads</tspan><tspan> = 0, 0, 0, 0</tspan></text></g><g class="node-argument"><rect rx="3" ry="3" x="3" y="73" width="82.734375" height="14" style="fill: transparent;"/><text xml:space="preserve" x="6" y="84" style="font-family: -apple-system, BlinkMacSystemFont, &quot;Segoe WPC&quot;, &quot;Segoe UI&quot;, Ubuntu, &quot;Droid Sans&quot;, sans-serif, &quot;PingFang SC&quot;; font-size: 9px; font-weight: normal; text-rendering: geometricprecision; user-select: none;"><title>int64[]</title><tspan>strides</tspan><tspan> = 1, 1</tspan></text></g><line class="node" x1="0" x2="88.734375" y1="0" y2="0" style="stroke: rgb(51, 51, 51); fill: none; stroke-width: 1px;"/></g><path class="node node-border" d="M5,0h78.734375a5,5 0 0 1 5,5v103a5,5 0 0 1 -5,5h-78.734375a5,5 0 0 1 -5,-5v-103a5,5 0 0 1 5,-5z" style="stroke: rgb(51, 51, 51); fill: none; stroke-width: 1px;"/></g><g id="node-name-/Relu_3" class="node graph-node" transform="translate(897.3896484375,45)" style=""><g class="node-item node-item-type node-item-type-activation" transform="translate(0,0)"><path d="M5,0h24.90625a5,5 0 0 1 5,5v13a5,5 0 0 1 -5,5h-24.90625a5,5 0 0 1 -5,-5v-13a5,5 0 0 1 5,-5z" style="stroke: rgb(0, 0, 0); fill: rgb(112, 41, 33); stroke-width: 0;"/><text x="6" y="16" style="font-family: -apple-system, BlinkMacSystemFont, &quot;Segoe WPC&quot;, &quot;Segoe UI&quot;, Ubuntu, &quot;Droid Sans&quot;, sans-serif, &quot;PingFang SC&quot;; font-size: 11px; text-rendering: geometricprecision; user-select: none; fill: rgb(255, 255, 255);">Relu</text><title>/Relu_3</title></g><path class="node node-border" d="M5,0h24.90625a5,5 0 0 1 5,5v13a5,5 0 0 1 -5,5h-24.90625a5,5 0 0 1 -5,-5v-13a5,5 0 0 1 5,-5z" style="stroke: rgb(51, 51, 51); fill: none; stroke-width: 1px;"/></g><g id="node-name-/Reshape" class="node graph-node" transform="translate(952.2958984375,35)" style=""><g class="node-item node-item-type node-item-type-shape" transform="translate(0,0)"><path d="M5,0h65a5,5 0 0 1 5,5v18a0,0 0 0 1 0,0h-75a0,0 0 0 1 0,0v-18a5,5 0 0 1 5,-5z" style="stroke: rgb(0, 0, 0); fill: rgb(108, 79, 71); stroke-width: 0;"/><text x="6" y="16" style="font-family: -apple-system, BlinkMacSystemFont, &quot;Segoe WPC&quot;, &quot;Segoe UI&quot;, Ubuntu, &quot;Droid Sans&quot;, sans-serif, &quot;PingFang SC&quot;; font-size: 11px; text-rendering: geometricprecision; user-select: none; fill: rgb(255, 255, 255);">Reshape</text><title>/Reshape</title></g><g class="node-argument-list" transform="translate(0,23)"><path d="M0,0h75a0,0 0 0 1 0,0v15a5,5 0 0 1 -5,5h-65a5,5 0 0 1 -5,-5v-15a0,0 0 0 1 0,0z" style="stroke: rgb(0, 0, 0); fill: rgb(255, 255, 255); stroke-width: 0;"/><g class="node-argument"><rect rx="3" ry="3" x="3" y="3" width="69" height="14" style="fill: transparent;"/><text xml:space="preserve" x="6" y="14" style="font-family: -apple-system, BlinkMacSystemFont, &quot;Segoe WPC&quot;, &quot;Segoe UI&quot;, Ubuntu, &quot;Droid Sans&quot;, sans-serif, &quot;PingFang SC&quot;; font-size: 9px; font-weight: normal; text-rendering: geometricprecision; user-select: none;"><title>int64[2]</title><tspan style="font-weight: bold;">shape</tspan><tspan>〈2〉</tspan></text></g><line class="node" x1="0" x2="75" y1="0" y2="0" style="stroke: rgb(51, 51, 51); fill: none; stroke-width: 1px;"/></g><path class="node node-border" d="M5,0h65a5,5 0 0 1 5,5v33a5,5 0 0 1 -5,5h-65a5,5 0 0 1 -5,-5v-33a5,5 0 0 1 5,-5z" style="stroke: rgb(51, 51, 51); fill: none; stroke-width: 1px;"/></g><g id="node-name-/fc1/Gemm" class="node graph-node" transform="translate(1047.2958984375,21)" style=""><g class="node-item node-item-type node-item-type-layer" transform="translate(0,0)"><path d="M5,0h65a5,5 0 0 1 5,5v18a0,0 0 0 1 0,0h-75a0,0 0 0 1 0,0v-18a5,5 0 0 1 5,-5z" style="stroke: rgb(0, 0, 0); fill: rgb(51, 85, 136); stroke-width: 0;"/><text x="6" y="16" style="font-family: -apple-system, BlinkMacSystemFont, &quot;Segoe WPC&quot;, &quot;Segoe UI&quot;, Ubuntu, &quot;Droid Sans&quot;, sans-serif, &quot;PingFang SC&quot;; font-size: 11px; text-rendering: geometricprecision; user-select: none; fill: rgb(255, 255, 255);">Gemm</text><title>/fc1/Gemm</title></g><g class="node-argument-list" transform="translate(0,23)"><path d="M0,0h75a0,0 0 0 1 0,0v43a5,5 0 0 1 -5,5h-65a5,5 0 0 1 -5,-5v-43a0,0 0 0 1 0,0z" style="stroke: rgb(0, 0, 0); fill: rgb(255, 255, 255); stroke-width: 0;"/><g class="node-argument"><rect rx="3" ry="3" x="3" y="3" width="69" height="14" style="fill: transparent;"/><text xml:space="preserve" x="6" y="14" style="font-family: -apple-system, BlinkMacSystemFont, &quot;Segoe WPC&quot;, &quot;Segoe UI&quot;, Ubuntu, &quot;Droid Sans&quot;, sans-serif, &quot;PingFang SC&quot;; font-size: 9px; font-weight: normal; text-rendering: geometricprecision; user-select: none;"><title>float32[10,600]</title><tspan style="font-weight: bold;">B</tspan><tspan>〈10×600〉</tspan></text></g><g class="node-argument"><rect rx="3" ry="3" x="3" y="17" width="69" height="14" style="fill: transparent;"/><text xml:space="preserve" x="6" y="28" style="font-family: -apple-system, BlinkMacSystemFont, &quot;Segoe WPC&quot;, &quot;Segoe UI&quot;, Ubuntu, &quot;Droid Sans&quot;, sans-serif, &quot;PingFang SC&quot;; font-size: 9px; font-weight: normal; text-rendering: geometricprecision; user-select: none;"><title>float32[10]</title><tspan style="font-weight: bold;">C</tspan><tspan>〈10〉</tspan></text></g><g class="node-argument"><rect rx="3" ry="3" x="3" y="31" width="69" height="14" style="fill: transparent;"/><text xml:space="preserve" x="6" y="42" style="font-family: -apple-system, BlinkMacSystemFont, &quot;Segoe WPC&quot;, &quot;Segoe UI&quot;, Ubuntu, &quot;Droid Sans&quot;, sans-serif, &quot;PingFang SC&quot;; font-size: 9px; font-weight: normal; text-rendering: geometricprecision; user-select: none;"><title>int64</title><tspan>transB</tspan><tspan> = 1</tspan></text></g><line class="node" x1="0" x2="75" y1="0" y2="0" style="stroke: rgb(51, 51, 51); fill: none; stroke-width: 1px;"/></g><path class="node node-border" d="M5,0h65a5,5 0 0 1 5,5v61a5,5 0 0 1 -5,5h-65a5,5 0 0 1 -5,-5v-61a5,5 0 0 1 5,-5z" style="stroke: rgb(51, 51, 51); fill: none; stroke-width: 1px;"/></g><g id="node-name-/LogSoftmax" class="node graph-node" transform="translate(1142.2958984375,45)" style=""><g class="node-item node-item-type node-item-type-activation" transform="translate(0,0)"><path d="M5,0h62.63134765625a5,5 0 0 1 5,5v13a5,5 0 0 1 -5,5h-62.63134765625a5,5 0 0 1 -5,-5v-13a5,5 0 0 1 5,-5z" style="stroke: rgb(0, 0, 0); fill: rgb(112, 41, 33); stroke-width: 0;"/><text x="6" y="16" style="font-family: -apple-system, BlinkMacSystemFont, &quot;Segoe WPC&quot;, &quot;Segoe UI&quot;, Ubuntu, &quot;Droid Sans&quot;, sans-serif, &quot;PingFang SC&quot;; font-size: 11px; text-rendering: geometricprecision; user-select: none; fill: rgb(255, 255, 255);">LogSoftmax</text><title>/LogSoftmax</title></g><path class="node node-border" d="M5,0h62.63134765625a5,5 0 0 1 5,5v13a5,5 0 0 1 -5,5h-62.63134765625a5,5 0 0 1 -5,-5v-13a5,5 0 0 1 5,-5z" style="stroke: rgb(51, 51, 51); fill: none; stroke-width: 1px;"/></g><g class="node" transform="translate(1298.35888671875,45)" style=""><g class="node-item graph-item-output" transform="translate(0,0)"><path d="M5,0h37.08984375a5,5 0 0 1 5,5v13a5,5 0 0 1 -5,5h-37.08984375a5,5 0 0 1 -5,-5v-13a5,5 0 0 1 5,-5z" style="stroke: rgb(0, 0, 0); fill: rgb(238, 238, 238); stroke-width: 0;"/><text x="6" y="16" style="font-family: -apple-system, BlinkMacSystemFont, &quot;Segoe WPC&quot;, &quot;Segoe UI&quot;, Ubuntu, &quot;Droid Sans&quot;, sans-serif, &quot;PingFang SC&quot;; font-size: 11px; text-rendering: geometricprecision; user-select: none;">output</text><title>float32[batch_size,10]</title></g><path class="node node-border" d="M5,0h37.08984375a5,5 0 0 1 5,5v13a5,5 0 0 1 -5,5h-37.08984375a5,5 0 0 1 -5,-5v-13a5,5 0 0 1 5,-5z" style="stroke: rgb(51, 51, 51); fill: none; stroke-width: 1px;"/></g></g></g></svg>